<svg width="28" height="20" viewBox="0 0 28 20" fill="none" xmlns="http://www.w3.org/2000/svg">
<path fill-rule="evenodd" clip-rule="evenodd" d="M20.4587 -1.9363e-05C20.7913 -0.00217318 21.1192 0.0791943 21.4123 0.236664C21.7048 0.393818 21.9532 0.621722 22.1349 0.89952L27.8321 9.44528C28.056 9.78118 28.056 10.2188 27.8321 10.5547L22.1349 19.1005C21.9532 19.3782 21.7048 19.6061 21.4123 19.7633C21.1192 19.9208 20.7913 20.0021 20.4587 20H2C1.46957 20 0.960861 19.7893 0.585787 19.4142C0.210714 19.0391 0 18.5304 0 18V1.99998C0 1.46955 0.210714 0.96084 0.585787 0.585767C0.960859 0.210695 1.46957 -1.9363e-05 2 -1.9363e-05H20.4587ZM21.3 18.55L20.4679 17.9953L25.7981 9.99998L20.4648 2L20.4625 2.00002L2 1.99998L2 18H20.4717C20.4701 18 20.4686 18.0003 20.4671 18.0008C20.4666 18.001 20.4661 18.0012 20.4657 18.0015C20.4645 18.0021 20.4634 18.003 20.4625 18.0039C20.462 18.0045 20.4615 18.0051 20.4611 18.0057L21.3 18.55Z" fill="#7C7C8A"/>
</svg>
