<svg width="243" height="56" viewBox="0 0 243 56" fill="none" xmlns="http://www.w3.org/2000/svg">
<path opacity="0.5" d="M30.2232 0.221226L47.0278 32.1628C47.1002 32.3115 46.9881 32.4831 46.8278 32.4832L37.779 32.4861L29.3617 16.4753C29.2893 16.3266 29.0831 16.3267 28.9951 16.4754L18.9026 32.4923L9.89972 32.4953C9.73936 32.4953 9.64525 32.3238 9.7332 32.1751L29.8567 0.221347C29.9555 0.0840551 30.1617 0.0839866 30.2232 0.221226Z" fill="#00875F"/>
<path opacity="0.5" d="M37.7786 32.4861L42.1345 40.7431C42.2069 40.8918 42.0948 41.0634 41.9344 41.0635L13.8598 41.0841C13.6995 41.0842 13.6053 40.9126 13.6933 40.7639L18.9022 32.4923L37.7786 32.4861Z" fill="#00875F"/>
<path d="M29.3608 16.4755L37.7782 32.4864L18.9018 32.4926L28.9943 16.4757C29.0823 16.3269 29.2884 16.3269 29.3608 16.4755Z" fill="#00875F"/>
<path d="M84.3758 30.0696H88.1111C88.0362 31.2939 87.6989 32.3808 87.0992 33.3302C86.5079 34.2797 85.6792 35.0209 84.6131 35.554C83.5554 36.087 82.2812 36.3535 80.7903 36.3535C79.6243 36.3535 78.5791 36.1536 77.6546 35.7538C76.7302 35.3457 75.939 34.7627 75.281 34.0048C74.6314 33.2469 74.1358 32.3308 73.7944 31.2564C73.4529 30.182 73.2821 28.9786 73.2821 27.646V26.3842C73.2821 25.0516 73.457 23.8482 73.8068 22.7738C74.165 21.6911 74.673 20.7708 75.331 20.0129C75.9973 19.255 76.7926 18.672 77.7171 18.2639C78.6416 17.8558 79.6743 17.6517 80.8153 17.6517C82.3311 17.6517 83.6096 17.9266 84.6506 18.4762C85.7 19.0259 86.5121 19.7838 87.0867 20.7499C87.6697 21.7161 88.0195 22.8154 88.1361 24.0481H84.3883C84.3466 23.3151 84.2009 22.6947 83.951 22.1866C83.7012 21.6702 83.3222 21.283 82.8142 21.0248C82.3145 20.7583 81.6482 20.625 80.8153 20.625C80.1907 20.625 79.6452 20.7416 79.1788 20.9748C78.7124 21.208 78.3209 21.562 78.0044 22.0367C77.688 22.5114 77.4506 23.1111 77.2923 23.8357C77.1424 24.5519 77.0675 25.3931 77.0675 26.3592V27.646C77.0675 28.5871 77.1383 29.4158 77.2799 30.1321C77.4214 30.84 77.638 31.4396 77.9295 31.931C78.2293 32.4141 78.6124 32.7805 79.0788 33.0304C79.5536 33.2719 80.1241 33.3927 80.7903 33.3927C81.5732 33.3927 82.2187 33.2678 82.7267 33.0179C83.2348 32.7681 83.6221 32.3974 83.8886 31.906C84.1634 31.4147 84.3258 30.8025 84.3758 30.0696ZM97.6432 33.0554V27.0338C97.6432 26.6008 97.5724 26.2301 97.4308 25.922C97.2892 25.6055 97.0685 25.3598 96.7687 25.1849C96.4772 25.01 96.0982 24.9226 95.6318 24.9226C95.2321 24.9226 94.8864 24.9933 94.5949 25.1349C94.3034 25.2682 94.0786 25.4639 93.9203 25.7221C93.7621 25.9719 93.6829 26.2676 93.6829 26.6091H90.085C90.085 26.0344 90.2183 25.4889 90.4848 24.9725C90.7513 24.4562 91.1386 24.0022 91.6466 23.6108C92.1547 23.211 92.7585 22.8987 93.4581 22.6738C94.166 22.449 94.9572 22.3365 95.8317 22.3365C96.8811 22.3365 97.8139 22.5114 98.6301 22.8612C99.4463 23.211 100.088 23.7357 100.554 24.4353C101.029 25.1349 101.266 26.0094 101.266 27.0588V32.843C101.266 33.5842 101.312 34.1922 101.404 34.667C101.495 35.1334 101.628 35.5415 101.803 35.8913V36.1036H98.1679C97.993 35.7372 97.8597 35.2791 97.7681 34.7294C97.6848 34.1714 97.6432 33.6134 97.6432 33.0554ZM98.1179 27.8709L98.1429 29.9072H96.1315C95.6568 29.9072 95.2446 29.9613 94.8948 30.0696C94.545 30.1779 94.2576 30.3319 94.0327 30.5318C93.8079 30.7234 93.6413 30.9483 93.533 31.2064C93.4331 31.4646 93.3831 31.7478 93.3831 32.056C93.3831 32.3641 93.4539 32.6431 93.5955 32.893C93.7371 33.1345 93.9411 33.3261 94.2076 33.4676C94.4742 33.6009 94.7865 33.6675 95.1446 33.6675C95.686 33.6675 96.1565 33.5593 96.5563 33.3427C96.9561 33.1262 97.2642 32.8597 97.4808 32.5432C97.7056 32.2267 97.8222 31.9269 97.8306 31.6437L98.78 33.1678C98.6468 33.5093 98.4635 33.8633 98.2303 34.2297C98.0055 34.5962 97.7181 34.9418 97.3683 35.2666C97.0185 35.5831 96.5979 35.8455 96.1066 36.0537C95.6152 36.2536 95.0322 36.3535 94.3576 36.3535C93.4997 36.3535 92.721 36.1828 92.0214 35.8413C91.3301 35.4915 90.7804 35.0126 90.3723 34.4046C89.9726 33.7883 89.7727 33.0887 89.7727 32.3058C89.7727 31.5979 89.9059 30.9691 90.1725 30.4194C90.439 29.8697 90.8304 29.4075 91.3468 29.0327C91.8715 28.6496 92.5253 28.3622 93.3082 28.1707C94.091 27.9708 94.9989 27.8709 96.0316 27.8709H98.1179ZM111.348 32.3683C111.348 32.1101 111.273 31.8769 111.123 31.6687C110.973 31.4605 110.694 31.2689 110.286 31.094C109.886 30.9108 109.307 30.7442 108.549 30.5943C107.866 30.4444 107.229 30.257 106.638 30.0321C106.055 29.7989 105.547 29.5199 105.114 29.1951C104.689 28.8703 104.356 28.4872 104.114 28.0458C103.873 27.596 103.752 27.0838 103.752 26.5091C103.752 25.9428 103.873 25.4098 104.114 24.9101C104.364 24.4103 104.718 23.9689 105.176 23.5858C105.643 23.1944 106.209 22.8904 106.875 22.6738C107.55 22.449 108.308 22.3365 109.149 22.3365C110.323 22.3365 111.331 22.5239 112.172 22.8987C113.022 23.2735 113.671 23.7899 114.121 24.4478C114.579 25.0975 114.808 25.8387 114.808 26.6715H111.21C111.21 26.3217 111.135 26.0094 110.986 25.7346C110.844 25.4514 110.619 25.2307 110.311 25.0725C110.011 24.9059 109.62 24.8226 109.137 24.8226C108.737 24.8226 108.391 24.8934 108.1 25.035C107.808 25.1682 107.583 25.3515 107.425 25.5847C107.275 25.8095 107.2 26.0594 107.2 26.3342C107.2 26.5425 107.242 26.7298 107.325 26.8964C107.417 27.0547 107.562 27.2004 107.762 27.3337C107.962 27.4669 108.22 27.5919 108.537 27.7085C108.862 27.8167 109.262 27.9167 109.736 28.0083C110.711 28.2082 111.581 28.4705 112.347 28.7953C113.113 29.1118 113.721 29.5449 114.171 30.0946C114.621 30.6359 114.846 31.348 114.846 32.2309C114.846 32.8305 114.713 33.3802 114.446 33.8799C114.18 34.3796 113.796 34.8169 113.297 35.1917C112.797 35.5581 112.197 35.8455 111.498 36.0537C110.806 36.2536 110.028 36.3535 109.162 36.3535C107.904 36.3535 106.838 36.1286 105.963 35.6789C105.097 35.2291 104.439 34.6586 103.99 33.9674C103.548 33.2678 103.327 32.5515 103.327 31.8186H106.738C106.755 32.31 106.88 32.7056 107.113 33.0054C107.354 33.3052 107.658 33.5218 108.025 33.655C108.4 33.7883 108.803 33.8549 109.237 33.8549C109.703 33.8549 110.09 33.7925 110.398 33.6675C110.707 33.5343 110.94 33.3594 111.098 33.1428C111.265 32.918 111.348 32.6598 111.348 32.3683ZM120.692 16.9146V36.1036H117.095V16.9146H120.692ZM120.18 28.8703H119.193C119.202 27.9292 119.327 27.063 119.568 26.2718C119.81 25.4722 120.155 24.781 120.605 24.198C121.055 23.6066 121.592 23.1486 122.217 22.8238C122.85 22.4989 123.549 22.3365 124.315 22.3365C124.982 22.3365 125.585 22.4323 126.127 22.6239C126.677 22.8071 127.147 23.1069 127.539 23.5234C127.938 23.9315 128.246 24.4686 128.463 25.1349C128.68 25.8012 128.788 26.6091 128.788 27.5585V36.1036H125.165V27.5336C125.165 26.9339 125.077 26.4633 124.903 26.1219C124.736 25.7721 124.49 25.5264 124.165 25.3848C123.849 25.2349 123.458 25.1599 122.991 25.1599C122.475 25.1599 122.033 25.2557 121.667 25.4472C121.309 25.6388 121.021 25.9053 120.805 26.2468C120.588 26.5799 120.43 26.9714 120.33 27.4211C120.23 27.8709 120.18 28.3539 120.18 28.8703ZM135.496 17.9141V36.1036H131.749V17.9141H135.496ZM142.742 25.6846V28.6079H134.472V25.6846H142.742ZM143.617 17.9141V20.8499H134.472V17.9141H143.617ZM149.364 16.9146V36.1036H145.753V16.9146H149.364ZM151.762 29.4824V29.2201C151.762 28.229 151.904 27.317 152.187 26.4842C152.47 25.643 152.882 24.9142 153.424 24.2979C153.965 23.6816 154.631 23.2027 155.423 22.8612C156.214 22.5114 157.122 22.3365 158.146 22.3365C159.17 22.3365 160.082 22.5114 160.882 22.8612C161.681 23.2027 162.352 23.6816 162.893 24.2979C163.443 24.9142 163.859 25.643 164.143 26.4842C164.426 27.317 164.567 28.229 164.567 29.2201V29.4824C164.567 30.4652 164.426 31.3772 164.143 32.2184C163.859 33.0512 163.443 33.78 162.893 34.4046C162.352 35.0209 161.686 35.4998 160.894 35.8413C160.103 36.1828 159.195 36.3535 158.171 36.3535C157.147 36.3535 156.235 36.1828 155.435 35.8413C154.644 35.4998 153.973 35.0209 153.424 34.4046C152.882 33.78 152.47 33.0512 152.187 32.2184C151.904 31.3772 151.762 30.4652 151.762 29.4824ZM155.36 29.2201V29.4824C155.36 30.0488 155.41 30.5776 155.51 31.069C155.61 31.5604 155.768 31.9935 155.985 32.3683C156.21 32.7347 156.501 33.0221 156.859 33.2303C157.217 33.4385 157.655 33.5426 158.171 33.5426C158.671 33.5426 159.1 33.4385 159.458 33.2303C159.816 33.0221 160.103 32.7347 160.32 32.3683C160.536 31.9935 160.695 31.5604 160.794 31.069C160.903 30.5776 160.957 30.0488 160.957 29.4824V29.2201C160.957 28.6704 160.903 28.154 160.794 27.671C160.695 27.1796 160.532 26.7465 160.307 26.3717C160.091 25.9886 159.803 25.6888 159.445 25.4722C159.087 25.2557 158.654 25.1474 158.146 25.1474C157.638 25.1474 157.205 25.2557 156.847 25.4722C156.497 25.6888 156.21 25.9886 155.985 26.3717C155.768 26.7465 155.61 27.1796 155.51 27.671C155.41 28.154 155.36 28.6704 155.36 29.2201ZM170.639 32.6056L173.45 22.5864H175.736L174.999 26.5216L172.188 36.1036H170.277L170.639 32.6056ZM169.215 22.5864L171.226 32.5932L171.413 36.1036H169.165L165.742 22.5864H169.215ZM178.309 32.4307L180.271 22.5864H183.756L180.333 36.1036H178.097L178.309 32.4307ZM176.048 22.5864L178.847 32.5307L179.234 36.1036H177.31L174.499 26.5341L173.787 22.5864H176.048ZM199.247 29.6199H194.613V26.6965H199.247C199.964 26.6965 200.547 26.5799 200.996 26.3467C201.446 26.1052 201.775 25.7721 201.983 25.3473C202.192 24.9226 202.296 24.4437 202.296 23.9106C202.296 23.3693 202.192 22.8654 201.983 22.399C201.775 21.9326 201.446 21.5578 200.996 21.2746C200.547 20.9915 199.964 20.8499 199.247 20.8499H195.912V36.1036H192.164V17.9141H199.247C200.672 17.9141 201.892 18.1723 202.908 18.6886C203.932 19.1967 204.715 19.9004 205.256 20.7999C205.798 21.6994 206.068 22.728 206.068 23.8856C206.068 25.06 205.798 26.0761 205.256 26.9339C204.715 27.7917 203.932 28.4539 202.908 28.9203C201.892 29.3867 200.672 29.6199 199.247 29.6199ZM212.227 16.9146V36.1036H208.617V16.9146H212.227ZM223.196 32.868V22.5864H226.794V36.1036H223.409L223.196 32.868ZM223.596 30.0946L224.658 30.0696C224.658 30.9691 224.554 31.8061 224.345 32.5807C224.137 33.3469 223.825 34.0132 223.409 34.5795C222.992 35.1375 222.467 35.5748 221.834 35.8913C221.201 36.1994 220.456 36.3535 219.598 36.3535C218.94 36.3535 218.332 36.2619 217.774 36.0787C217.225 35.8871 216.75 35.5914 216.35 35.1917C215.959 34.7836 215.65 34.263 215.426 33.6301C215.209 32.9888 215.101 32.2184 215.101 31.3189V22.5864H218.699V31.3439C218.699 31.7436 218.745 32.0809 218.836 32.3558C218.936 32.6306 219.074 32.8555 219.248 33.0304C219.423 33.2053 219.627 33.3302 219.861 33.4052C220.102 33.4801 220.369 33.5176 220.66 33.5176C221.401 33.5176 221.984 33.3677 222.409 33.0679C222.842 32.7681 223.146 32.36 223.321 31.8436C223.504 31.3189 223.596 30.7359 223.596 30.0946ZM236.851 32.3683C236.851 32.1101 236.776 31.8769 236.626 31.6687C236.476 31.4605 236.197 31.2689 235.789 31.094C235.389 30.9108 234.81 30.7442 234.052 30.5943C233.369 30.4444 232.732 30.257 232.141 30.0321C231.558 29.7989 231.05 29.5199 230.617 29.1951C230.192 28.8703 229.859 28.4872 229.617 28.0458C229.376 27.596 229.255 27.0838 229.255 26.5091C229.255 25.9428 229.376 25.4098 229.617 24.9101C229.867 24.4103 230.221 23.9689 230.679 23.5858C231.146 23.1944 231.712 22.8904 232.378 22.6738C233.053 22.449 233.811 22.3365 234.652 22.3365C235.826 22.3365 236.834 22.5239 237.675 22.8987C238.525 23.2735 239.174 23.7899 239.624 24.4478C240.082 25.0975 240.311 25.8387 240.311 26.6715H236.713C236.713 26.3217 236.638 26.0094 236.489 25.7346C236.347 25.4514 236.122 25.2307 235.814 25.0725C235.514 24.9059 235.123 24.8226 234.64 24.8226C234.24 24.8226 233.894 24.8934 233.603 25.035C233.311 25.1682 233.086 25.3515 232.928 25.5847C232.778 25.8095 232.703 26.0594 232.703 26.3342C232.703 26.5425 232.745 26.7298 232.828 26.8964C232.92 27.0547 233.066 27.2004 233.265 27.3337C233.465 27.4669 233.723 27.5919 234.04 27.7085C234.365 27.8167 234.765 27.9167 235.239 28.0083C236.214 28.2082 237.084 28.4705 237.85 28.7953C238.616 29.1118 239.224 29.5449 239.674 30.0946C240.124 30.6359 240.349 31.348 240.349 32.2309C240.349 32.8305 240.216 33.3802 239.949 33.8799C239.683 34.3796 239.299 34.8169 238.8 35.1917C238.3 35.5581 237.7 35.8455 237.001 36.0537C236.309 36.2536 235.531 36.3535 234.665 36.3535C233.407 36.3535 232.341 36.1286 231.466 35.6789C230.6 35.2291 229.942 34.6586 229.493 33.9674C229.051 33.2678 228.83 32.5515 228.83 31.8186H232.241C232.258 32.31 232.383 32.7056 232.616 33.0054C232.857 33.3052 233.161 33.5218 233.528 33.655C233.903 33.7883 234.306 33.8549 234.74 33.8549C235.206 33.8549 235.593 33.7925 235.901 33.6675C236.21 33.5343 236.443 33.3594 236.601 33.1428C236.768 32.918 236.851 32.6598 236.851 32.3683Z" fill="#E1E1E6"/>
</svg>
